<svg xmlns="http://www.w3.org/2000/svg" xmlns:xlink="http://www.w3.org/1999/xlink" width="1361" height="609" version="1.1" viewBox="0 0 1361 609"><title>Group 21</title><desc>Created with Sketch.</desc><g id="Ant-Design-Pro-3.0" fill="none" fill-rule="evenodd" stroke="none" stroke-width="1"><g id="账户密码登录-校验" transform="translate(-79.000000, -82.000000)"><g id="Group-21" transform="translate(77.000000, 73.000000)"><g id="Group-18" opacity=".8" transform="translate(74.901416, 569.699158) rotate(-7.000000) translate(-74.901416, -569.699158) translate(4.901416, 525.199158)"><ellipse id="Oval-11" cx="63.575" cy="32.468" fill="#CFDAE6" opacity=".25" rx="21.783" ry="21.766"/><ellipse id="Oval-3" cx="5.987" cy="13.867" fill="#CFDAE6" opacity=".6" rx="5.217" ry="5.213"/><path id="Oval-3-Copy" fill="#CFDAE6" d="M38.1354514,88.3520215 C43.8984227,88.3520215 48.570234,83.6838647 48.570234,77.9254015 C48.570234,72.1669383 43.8984227,67.4987816 38.1354514,67.4987816 C32.3724801,67.4987816 27.7006688,72.1669383 27.7006688,77.9254015 C27.7006688,83.6838647 32.3724801,88.3520215 38.1354514,88.3520215 Z" opacity=".45"/><path id="Path-12" stroke="#CFDAE6" stroke-linecap="round" stroke-linejoin="round" stroke-width="1.739" d="M64.2775582,33.1704963 L119.185836,16.5654915"/><path id="Path-16" stroke="#E0B4B7" stroke-dasharray="1.405 2.108" stroke-linecap="round" stroke-linejoin="round" stroke-width=".703" d="M42.1431708,26.5002681 L7.71190162,14.5640702" opacity=".7"/><path id="Path-15" stroke="#BACAD9" stroke-dasharray="1.405 2.108" stroke-linecap="round" stroke-linejoin="round" stroke-width=".703" d="M63.9262187,33.521561 L43.6721326,69.3250951"/><g id="Group-17" fill="#CFDAE6" transform="translate(126.850922, 13.543654) rotate(30.000000) translate(-126.850922, -13.543654) translate(117.285705, 4.381889)"><ellipse id="Oval-4" cx="9.135" cy="9.128" opacity=".45" rx="9.135" ry="9.128"/><path id="Oval-4" d="M18.2696531,18.2553615 C18.2696531,13.2142826 14.1798519,9.12768076 9.13482653,9.12768076 C4.08980114,9.12768076 0,13.2142826 0,18.2553615 L18.2696531,18.2553615 Z" transform="translate(9.134827, 13.691521) scale(-1, -1) translate(-9.134827, -13.691521)"/></g></g><g id="Group-14" transform="translate(216.294700, 123.725600) rotate(-5.000000) translate(-216.294700, -123.725600) translate(106.294700, 35.225600)"><ellipse id="Oval-2" cx="29.118" cy="29.14" fill="#CFDAE6" opacity=".25" rx="29.118" ry="29.14"/><ellipse id="Oval-2" cx="29.118" cy="29.14" fill="#CFDAE6" opacity=".3" rx="21.569" ry="21.585"/><ellipse id="Oval-2-Copy" cx="179.02" cy="138.146" stroke="#CFDAE6" opacity=".4" rx="23.725" ry="23.744"/><ellipse id="Oval-2" cx="29.118" cy="29.14" fill="#BACAD9" opacity=".5" rx="10.784" ry="10.793"/><path id="Oval-2" fill="#BACAD9" d="M29.1176471,39.9329268 L29.1176471,18.347561 C23.1616351,18.347561 18.3333333,23.1796097 18.3333333,29.1402439 C18.3333333,35.1008781 23.1616351,39.9329268 29.1176471,39.9329268 Z"/><g id="Group-9" fill="#E6A1A6" opacity=".45" transform="translate(172.000000, 131.000000)"><ellipse id="Oval-2-Copy-2" cx="7.02" cy="7.146" rx="6.471" ry="6.476"/><path id="Oval-2-Copy-2" d="M0.549019608,13.6219512 C4.12262681,13.6219512 7.01960784,10.722722 7.01960784,7.14634146 C7.01960784,3.56996095 4.12262681,0.670731707 0.549019608,0.670731707 L0.549019608,13.6219512 Z" transform="translate(3.784314, 7.146341) scale(-1, 1) translate(-3.784314, -7.146341)"/></g><ellipse id="Oval-10" cx="218.382" cy="138.686" fill="#CFDAE6" rx="1.618" ry="1.619"/><ellipse id="Oval-10-Copy-2" cx="179.559" cy="175.381" fill="#E0B4B7" opacity=".35" rx="1.618" ry="1.619"/><ellipse id="Oval-10-Copy" cx="180.098" cy="102.53" fill="#E0B4B7" opacity=".35" rx="2.157" ry="2.159"/><path id="Path-11" stroke="#CFDAE6" d="M28.9985381,29.9671598 L171.151018,132.876024" opacity=".8"/></g><g id="Group-10" opacity=".8" transform="translate(1054.100635, 36.659317) rotate(-11.000000) translate(-1054.100635, -36.659317) translate(1026.600635, 4.659317)"><ellipse id="Oval-7" cx="43.814" cy="32" stroke="#CFDAE6" stroke-width=".941" rx="11.186" ry="11.294"/><g id="Group-12" fill="#BACAD9" transform="translate(34.596774, 23.111111)"><ellipse id="Oval-7" cx="9.185" cy="8.889" opacity=".45" rx="8.475" ry="8.556"/><path id="Oval-7" d="M9.18534718,17.4450386 C13.8657264,17.4450386 17.6599235,13.6143199 17.6599235,8.88888889 C17.6599235,4.16345787 13.8657264,0.332739156 9.18534718,0.332739156 L9.18534718,17.4450386 Z"/></g><path id="Path-2" stroke="#CFDAE6" stroke-width=".941" d="M34.6597385,24.809694 L5.71666084,4.76878945"/><ellipse id="Oval" cx="3.263" cy="3.294" stroke="#CFDAE6" stroke-width=".941" rx="3.263" ry="3.294"/><ellipse id="Oval-Copy" cx="2.797" cy="61.176" fill="#F7E1AD" rx="2.797" ry="2.824"/><path id="Path-10" stroke="#CFDAE6" stroke-width=".941" d="M34.6312443,39.2922712 L5.06366663,59.785082"/></g><g id="Group-19" opacity=".33" transform="translate(1282.537219, 446.502867) rotate(-10.000000) translate(-1282.537219, -446.502867) translate(1142.537219, 327.502867)"><g id="Group-17" fill="#BACAD9" transform="translate(141.333539, 104.502742) rotate(275.000000) translate(-141.333539, -104.502742) translate(129.333539, 92.502742)"><circle id="Oval-4" cx="11.667" cy="11.667" r="11.667" opacity=".45"/><path id="Oval-4" d="M23.3333333,23.3333333 C23.3333333,16.8900113 18.1099887,11.6666667 11.6666667,11.6666667 C5.22334459,11.6666667 0,16.8900113 0,23.3333333 L23.3333333,23.3333333 Z" transform="translate(11.666667, 17.500000) scale(-1, -1) translate(-11.666667, -17.500000)"/></g><circle id="Oval-5-Copy-6" cx="201.833" cy="87.5" r="5.833" fill="#CFDAE6"/><path id="Path-17" stroke="#BACAD9" stroke-width="1.167" d="M143.5,88.8126685 L155.070501,17.6038544"/><path id="Path-18" stroke="#BACAD9" stroke-width="1.167" d="M17.5,37.3333333 L127.466252,97.6449735"/><polyline id="Path-19" stroke="#CFDAE6" stroke-width="1.167" points="143.903 120.302 174.935 231.571 38.5 147.511 126.367 110.833"/><path id="Path-20" stroke="#E0B4B7" stroke-width="1.167" d="M159.833333,99.7453842 L195.416667,89.25" opacity=".6"/><path id="Path-24" stroke="#BACAD9" stroke-width="1.167" d="M205.333333,82.1372105 L238.719406,36.1666667"/><path id="Path-25" stroke="#CFDAE6" stroke-width="1.167" d="M266.723424,132.231988 L207.083333,90.4166667"/><circle id="Oval-5" cx="156.917" cy="8.75" r="8.75" fill="#C1D1E0"/><circle id="Oval-5-Copy-3" cx="39.083" cy="148.75" r="5.25" fill="#C1D1E0"/><circle id="Oval-5-Copy-2" cx="8.75" cy="33.25" r="8.75" fill="#D1DEED" fill-opacity=".6"/><circle id="Oval-5-Copy-4" cx="243.833" cy="30.333" r="5.833" fill="#D1DEED" fill-opacity=".6"/><circle id="Oval-5-Copy-5" cx="175.583" cy="232.75" r="5.25" fill="#E0B4B7"/></g></g></g></g></svg>